
    <svg width="202" height="145" viewBox="0 0 202 145" fill="none">
      <path d="M30.6752 21.055V16.5578L24.6752 15.3313C23.5085 14.9225 21.3752 13.2872 22.1752 10.0165C23.1752 5.92821 26.6752 0.613397 35.6752 1.02223V1.04446C44.6752 0.635624 48.1752 5.95044 49.1752 10.0388C49.9752 13.3094 47.8418 14.9447 46.6752 15.3536L40.6752 16.5801V21.0772L37.5 31.6624H35.6752L30.6752 21.055Z" fill="url(#paint0_radial_5_60)" stroke="url(#paint1_linear_5_60)"/>
      <path d="M29.6752 124.445V128.942L23.6752 130.169C22.5085 130.577 20.3752 132.213 21.1752 135.483C22.1752 139.572 25.6752 144.887 34.6752 144.478V144.456C43.6752 144.864 47.1752 139.55 48.1752 135.461C48.9752 132.191 46.8418 130.555 45.6752 130.146L39.6752 128.92V124.423L36.5 113.838H34.6752L29.6752 124.445Z" fill="url(#paint2_radial_5_60)" stroke="url(#paint3_linear_5_60)"/>
      <path d="M80.6752 22.6903V18.1932L74.6752 16.9667C73.5085 16.5578 71.3752 14.9225 72.1752 11.6519C73.1752 7.56354 76.6752 2.24873 85.6752 2.65756V2.67979C94.6752 2.27095 98.1752 7.58577 99.1752 11.6741C99.9752 14.9447 97.8418 16.5801 96.6752 16.9889L90.6752 18.2154V22.7126L87.5 33.2977H85.6752L80.6752 22.6903Z" fill="url(#paint4_radial_5_60)" stroke="url(#paint5_linear_5_60)"/>
      <path d="M79.6752 122.81V127.307L73.6752 128.533C72.5085 128.942 70.3752 130.577 71.1752 133.848C72.1752 137.936 75.6752 143.251 84.6752 142.842V142.82C93.6752 143.229 97.1752 137.914 98.1752 133.826C98.9752 130.555 96.8418 128.92 95.6752 128.511L89.6752 127.285V122.787L86.5 112.202H84.6752L79.6752 122.81Z" fill="url(#paint6_radial_5_60)" stroke="url(#paint7_linear_5_60)"/>
      <path d="M133.675 24.3257V19.8285L127.675 18.602C126.509 18.1932 124.375 16.5578 125.175 13.2872C126.175 9.19887 129.675 3.88406 138.675 4.29289V4.31512C147.675 3.90628 151.175 9.2211 152.175 13.3094C152.975 16.5801 150.842 18.2154 149.675 18.6242L143.675 19.8507V24.3479L140.5 34.9331H138.675L133.675 24.3257Z" fill="url(#paint8_radial_5_60)" stroke="url(#paint9_linear_5_60)"/>
      <path d="M132.675 121.174V125.671L126.675 126.898C125.509 127.307 123.375 128.942 124.175 132.213C125.175 136.301 128.675 141.616 137.675 141.207V141.185C146.675 141.594 150.175 136.279 151.175 132.191C151.975 128.92 149.842 127.285 148.675 126.876L142.675 125.649V121.152L139.5 110.567H137.675L132.675 121.174Z" fill="url(#paint10_radial_5_60)" stroke="url(#paint11_linear_5_60)"/>
      <path d="M0 27.0498C0 23.09 3.28182 19.9185 7.2393 20.0539L162.841 25.3765C163.932 25.4138 164.999 25.7057 165.957 26.2289L194.855 42.0115C197.102 43.2387 198.5 45.5947 198.5 48.155V97.8332C198.5 100.379 197.117 102.725 194.89 103.958L169.473 118.025C168.505 118.561 167.423 118.86 166.317 118.897L7.23433 124.225C3.27871 124.357 0 121.187 0 117.229V27.0498Z" fill="url(#paint12_radial_5_60)"/>
      <path d="M0 27.0498C0 23.09 3.28182 19.9185 7.2393 20.0539L163.958 25.4147C164.319 25.427 164.678 25.4672 165.032 25.5349L195.813 31.4139C199.113 32.0441 201.5 34.93 201.5 38.2896V105.449C201.5 108.701 199.261 111.524 196.095 112.265L168.672 118.683C168.225 118.788 167.769 118.848 167.311 118.863L7.23433 124.225C3.27871 124.357 0 121.187 0 117.229V27.0498Z" fill="url(#paint13_radial_5_60)"/>
      <rect x="190" y="34" width="11" height="77" rx="3" fill="#1D1D1D"/>
      <rect x="194" y="37" width="3" height="71" rx="1.5" fill="url(#paint14_radial_5_60)"/>
      <mask id="mask0_5_60" style="mask-type:alpha" maskUnits="userSpaceOnUse" x="0" y="20" width="202" height="105">
        <path d="M0 27.2435C0 23.2837 3.28182 20.1123 7.2393 20.2476L163.958 25.6084C164.319 25.6207 164.678 25.6609 165.032 25.7286L195.813 31.6076C199.113 32.2379 201.5 35.1237 201.5 38.4833V105.643C201.5 108.894 199.261 111.718 196.095 112.459L168.672 118.877C168.225 118.981 167.769 119.042 167.311 119.057L7.23433 124.419C3.27871 124.551 0 121.38 0 117.423V27.2435Z" fill="url(#paint15_radial_5_60)"/>
      </mask>
      <g mask="url(#mask0_5_60)">
        <path d="M201.5 64.5L85 47.5L36 33" stroke="#EEEEEE" stroke-width="1.4"/>
        <path d="M201.5 78L85.5 105.5L37 112" stroke="#EEEEEE" stroke-width="1.6"/>
        <path d="M201.5 90.5L138 105L88 108.5" stroke="#EEEEEE" stroke-width="1.2"/>
        <path d="M202 41L136.5 38.5" stroke="#EEEEEE" stroke-width="2"/>
        <path d="M202 53L134.5 41L84 38.5" stroke="#EEEEEE" stroke-width="1.8"/>
        <path d="M201.5 102.5L138 107" stroke="#EEEEEE" stroke-width="1.1"/>
      </g>
      <circle cx="35" cy="42" r="10" fill="url(#paint16_radial_5_60)"/>
      <circle cx="35" cy="42" r="10" fill="url(#paint17_radial_5_60)"/>
      <circle cx="35" cy="42" r="10" fill="url(#paint18_radial_5_60)"/>
      <circle cx="35" cy="42" r="5" fill="url(#paint19_radial_5_60)"/>
      <circle cx="35" cy="42" r="5" fill="url(#paint20_radial_5_60)"/>
      <circle cx="35" cy="42" r="5" fill="url(#paint21_radial_5_60)"/>
      <circle cx="86" cy="44" r="10" fill="url(#paint22_radial_5_60)"/>
      <circle cx="86" cy="44" r="10" fill="url(#paint23_radial_5_60)"/>
      <circle cx="86" cy="44" r="10" fill="url(#paint24_radial_5_60)"/>
      <circle cx="86" cy="44" r="5" fill="url(#paint25_radial_5_60)"/>
      <circle cx="86" cy="44" r="5" fill="url(#paint26_radial_5_60)"/>
      <circle cx="86" cy="44" r="5" fill="url(#paint27_radial_5_60)"/>
      <circle cx="137" cy="47" r="10" fill="url(#paint28_radial_5_60)"/>
      <circle cx="137" cy="47" r="10" fill="url(#paint29_radial_5_60)"/>
      <circle cx="137" cy="47" r="10" fill="url(#paint30_radial_5_60)"/>
      <circle cx="137" cy="47" r="5" fill="url(#paint31_radial_5_60)"/>
      <circle cx="137" cy="47" r="5" fill="url(#paint32_radial_5_60)"/>
      <circle cx="137" cy="47" r="5" fill="url(#paint33_radial_5_60)"/>
      <circle cx="35" cy="103" r="10" fill="url(#paint34_radial_5_60)"/>
      <circle cx="35" cy="103" r="10" fill="url(#paint35_radial_5_60)"/>
      <circle cx="35" cy="103" r="10" fill="url(#paint36_radial_5_60)"/>
      <circle cx="35" cy="103" r="5" fill="url(#paint37_radial_5_60)"/>
      <circle cx="35" cy="103" r="5" fill="url(#paint38_radial_5_60)"/>
      <circle cx="35" cy="103" r="5" fill="url(#paint39_radial_5_60)"/>
      <circle cx="86" cy="100" r="10" fill="url(#paint40_radial_5_60)"/>
      <circle cx="86" cy="100" r="10" fill="url(#paint41_radial_5_60)"/>
      <circle cx="86" cy="100" r="10" fill="url(#paint42_radial_5_60)"/>
      <circle cx="86" cy="100" r="5" fill="url(#paint43_radial_5_60)"/>
      <circle cx="86" cy="100" r="5" fill="url(#paint44_radial_5_60)"/>
      <circle cx="86" cy="100" r="5" fill="url(#paint45_radial_5_60)"/>
      <circle cx="137" cy="98" r="10" fill="url(#paint46_radial_5_60)"/>
      <circle cx="137" cy="98" r="10" fill="url(#paint47_radial_5_60)"/>
      <circle cx="137" cy="98" r="10" fill="url(#paint48_radial_5_60)"/>
      <circle cx="137" cy="98" r="5" fill="url(#paint49_radial_5_60)"/>
      <circle cx="137" cy="98" r="5" fill="url(#paint50_radial_5_60)"/>
      <circle cx="137" cy="98" r="5" fill="url(#paint51_radial_5_60)"/>
      <defs>
        <radialGradient id="paint0_radial_5_60" cx="0" cy="0" r="1" gradientUnits="userSpaceOnUse" gradientTransform="translate(28 9.17664) rotate(9.86904) scale(23.853 49.8217)">
          <stop offset="0.0240273" stop-color="#F4F4F4"/>
          <stop offset="1" stop-color="#565656"/>
        </radialGradient>
        <linearGradient id="paint1_linear_5_60" x1="26" y1="6.72365" x2="55.6395" y2="22.5826" gradientUnits="userSpaceOnUse">
          <stop stop-color="#ECECEC"/>
          <stop offset="1" stop-color="#323131"/>
        </linearGradient>
        <radialGradient id="paint2_radial_5_60" cx="0" cy="0" r="1" gradientUnits="userSpaceOnUse" gradientTransform="translate(27 136.323) rotate(-9.86904) scale(23.853 49.8217)">
          <stop offset="0.0240273" stop-color="#F4F4F4"/>
          <stop offset="1" stop-color="#565656"/>
        </radialGradient>
        <linearGradient id="paint3_linear_5_60" x1="25" y1="138.776" x2="54.6395" y2="122.917" gradientUnits="userSpaceOnUse">
          <stop stop-color="#ECECEC"/>
          <stop offset="1" stop-color="#323131"/>
        </linearGradient>
        <radialGradient id="paint4_radial_5_60" cx="0" cy="0" r="1" gradientUnits="userSpaceOnUse" gradientTransform="translate(78 10.812) rotate(9.86904) scale(23.853 49.8217)">
          <stop offset="0.0240273" stop-color="#F4F4F4"/>
          <stop offset="1" stop-color="#565656"/>
        </radialGradient>
        <linearGradient id="paint5_linear_5_60" x1="76" y1="8.35898" x2="105.639" y2="24.2179" gradientUnits="userSpaceOnUse">
          <stop stop-color="#ECECEC"/>
          <stop offset="1" stop-color="#323131"/>
        </linearGradient>
        <radialGradient id="paint6_radial_5_60" cx="0" cy="0" r="1" gradientUnits="userSpaceOnUse" gradientTransform="translate(77 134.688) rotate(-9.86904) scale(23.853 49.8217)">
          <stop offset="0.0240273" stop-color="#F4F4F4"/>
          <stop offset="1" stop-color="#565656"/>
        </radialGradient>
        <linearGradient id="paint7_linear_5_60" x1="75" y1="137.141" x2="104.639" y2="121.282" gradientUnits="userSpaceOnUse">
          <stop stop-color="#ECECEC"/>
          <stop offset="1" stop-color="#323131"/>
        </linearGradient>
        <radialGradient id="paint8_radial_5_60" cx="0" cy="0" r="1" gradientUnits="userSpaceOnUse" gradientTransform="translate(131 12.4473) rotate(9.86904) scale(23.853 49.8217)">
          <stop offset="0.0240273" stop-color="#F4F4F4"/>
          <stop offset="1" stop-color="#565656"/>
        </radialGradient>
        <linearGradient id="paint9_linear_5_60" x1="129" y1="9.99431" x2="158.639" y2="25.8532" gradientUnits="userSpaceOnUse">
          <stop stop-color="#ECECEC"/>
          <stop offset="1" stop-color="#323131"/>
        </linearGradient>
        <radialGradient id="paint10_radial_5_60" cx="0" cy="0" r="1" gradientUnits="userSpaceOnUse" gradientTransform="translate(130 133.053) rotate(-9.86904) scale(23.853 49.8217)">
          <stop offset="0.0240273" stop-color="#F4F4F4"/>
          <stop offset="1" stop-color="#565656"/>
        </radialGradient>
        <linearGradient id="paint11_linear_5_60" x1="128" y1="135.506" x2="157.639" y2="119.647" gradientUnits="userSpaceOnUse">
          <stop stop-color="#ECECEC"/>
          <stop offset="1" stop-color="#323131"/>
        </linearGradient>
        <radialGradient id="paint12_radial_5_60" cx="0" cy="0" r="1" gradientUnits="userSpaceOnUse" gradientTransform="translate(99.25 72.1368) rotate(90) scale(52.3305 165.867)">
          <stop stop-color="#C4664C"/>
          <stop offset="1" stop-color="#663714"/>
        </radialGradient>
        <radialGradient id="paint13_radial_5_60" cx="0" cy="0" r="1" gradientUnits="userSpaceOnUse" gradientTransform="translate(99.25 72.1368) rotate(90) scale(52.3305 165.867)">
          <stop stop-color="#C4664C"/>
          <stop offset="1" stop-color="#663714"/>
        </radialGradient>
        <radialGradient id="paint14_radial_5_60" cx="0" cy="0" r="1" gradientUnits="userSpaceOnUse" gradientTransform="translate(194 67.5) rotate(90) scale(62 109.775)">
          <stop stop-color="#E6E6E6"/>
          <stop offset="1" stop-color="#A8A8A8" stop-opacity="0.81"/>
        </radialGradient>
        <radialGradient id="paint15_radial_5_60" cx="0" cy="0" r="1" gradientUnits="userSpaceOnUse" gradientTransform="translate(99.25 72.3305) rotate(90) scale(52.3305 165.867)">
          <stop stop-color="#C4664C"/>
          <stop offset="1" stop-color="#663714"/>
        </radialGradient>
        <radialGradient id="paint16_radial_5_60" cx="0" cy="0" r="1" gradientUnits="userSpaceOnUse" gradientTransform="translate(25 35.5) rotate(47.7263) scale(22.2991)">
          <stop stop-color="#404040"/>
          <stop offset="1" stop-color="#E8E7E7"/>
        </radialGradient>
        <radialGradient id="paint17_radial_5_60" cx="0" cy="0" r="1" gradientUnits="userSpaceOnUse" gradientTransform="translate(25 35.5) rotate(47.7263) scale(22.2991)">
          <stop stop-color="#404040"/>
          <stop offset="1" stop-color="#E8E7E7"/>
        </radialGradient>
        <radialGradient id="paint18_radial_5_60" cx="0" cy="0" r="1" gradientUnits="userSpaceOnUse" gradientTransform="translate(25 35.5) rotate(47.7263) scale(22.2991)">
          <stop stop-color="#404040"/>
          <stop offset="1" stop-color="#E8E7E7"/>
        </radialGradient>
        <radialGradient id="paint19_radial_5_60" cx="0" cy="0" r="1" gradientUnits="userSpaceOnUse" gradientTransform="translate(30 38.75) rotate(47.7263) scale(11.1496)">
          <stop stop-color="#404040"/>
          <stop offset="1" stop-color="#E8E7E7"/>
        </radialGradient>
        <radialGradient id="paint20_radial_5_60" cx="0" cy="0" r="1" gradientUnits="userSpaceOnUse" gradientTransform="translate(30 38.75) rotate(47.7263) scale(11.1496)">
          <stop stop-color="#404040"/>
          <stop offset="1" stop-color="#E8E7E7"/>
        </radialGradient>
        <radialGradient id="paint21_radial_5_60" cx="0" cy="0" r="1" gradientUnits="userSpaceOnUse" gradientTransform="translate(30 38.75) rotate(47.7263) scale(11.1496)">
          <stop offset="0.463542" stop-color="#E8E7E7"/>
          <stop offset="1" stop-color="#878787"/>
        </radialGradient>
        <radialGradient id="paint22_radial_5_60" cx="0" cy="0" r="1" gradientUnits="userSpaceOnUse" gradientTransform="translate(76 37.5) rotate(47.7263) scale(22.2991)">
          <stop stop-color="#404040"/>
          <stop offset="1" stop-color="#E8E7E7"/>
        </radialGradient>
        <radialGradient id="paint23_radial_5_60" cx="0" cy="0" r="1" gradientUnits="userSpaceOnUse" gradientTransform="translate(76 37.5) rotate(47.7263) scale(22.2991)">
          <stop stop-color="#404040"/>
          <stop offset="1" stop-color="#E8E7E7"/>
        </radialGradient>
        <radialGradient id="paint24_radial_5_60" cx="0" cy="0" r="1" gradientUnits="userSpaceOnUse" gradientTransform="translate(76 37.5) rotate(47.7263) scale(22.2991)">
          <stop stop-color="#404040"/>
          <stop offset="1" stop-color="#E8E7E7"/>
        </radialGradient>
        <radialGradient id="paint25_radial_5_60" cx="0" cy="0" r="1" gradientUnits="userSpaceOnUse" gradientTransform="translate(81 40.75) rotate(47.7263) scale(11.1496)">
          <stop stop-color="#404040"/>
          <stop offset="1" stop-color="#E8E7E7"/>
        </radialGradient>
        <radialGradient id="paint26_radial_5_60" cx="0" cy="0" r="1" gradientUnits="userSpaceOnUse" gradientTransform="translate(81 40.75) rotate(47.7263) scale(11.1496)">
          <stop stop-color="#404040"/>
          <stop offset="1" stop-color="#E8E7E7"/>
        </radialGradient>
        <radialGradient id="paint27_radial_5_60" cx="0" cy="0" r="1" gradientUnits="userSpaceOnUse" gradientTransform="translate(81 40.75) rotate(47.7263) scale(11.1496)">
          <stop offset="0.463542" stop-color="#E8E7E7"/>
          <stop offset="1" stop-color="#878787"/>
        </radialGradient>
        <radialGradient id="paint28_radial_5_60" cx="0" cy="0" r="1" gradientUnits="userSpaceOnUse" gradientTransform="translate(127 40.5) rotate(47.7263) scale(22.2991)">
          <stop stop-color="#404040"/>
          <stop offset="1" stop-color="#E8E7E7"/>
        </radialGradient>
        <radialGradient id="paint29_radial_5_60" cx="0" cy="0" r="1" gradientUnits="userSpaceOnUse" gradientTransform="translate(127 40.5) rotate(47.7263) scale(22.2991)">
          <stop stop-color="#404040"/>
          <stop offset="1" stop-color="#E8E7E7"/>
        </radialGradient>
        <radialGradient id="paint30_radial_5_60" cx="0" cy="0" r="1" gradientUnits="userSpaceOnUse" gradientTransform="translate(127 40.5) rotate(47.7263) scale(22.2991)">
          <stop stop-color="#404040"/>
          <stop offset="1" stop-color="#E8E7E7"/>
        </radialGradient>
        <radialGradient id="paint31_radial_5_60" cx="0" cy="0" r="1" gradientUnits="userSpaceOnUse" gradientTransform="translate(132 43.75) rotate(47.7263) scale(11.1496)">
          <stop stop-color="#404040"/>
          <stop offset="1" stop-color="#E8E7E7"/>
        </radialGradient>
        <radialGradient id="paint32_radial_5_60" cx="0" cy="0" r="1" gradientUnits="userSpaceOnUse" gradientTransform="translate(132 43.75) rotate(47.7263) scale(11.1496)">
          <stop stop-color="#404040"/>
          <stop offset="1" stop-color="#E8E7E7"/>
        </radialGradient>
        <radialGradient id="paint33_radial_5_60" cx="0" cy="0" r="1" gradientUnits="userSpaceOnUse" gradientTransform="translate(132 43.75) rotate(47.7263) scale(11.1496)">
          <stop offset="0.463542" stop-color="#E8E7E7"/>
          <stop offset="1" stop-color="#878787"/>
        </radialGradient>
        <radialGradient id="paint34_radial_5_60" cx="0" cy="0" r="1" gradientUnits="userSpaceOnUse" gradientTransform="translate(25 96.5) rotate(47.7263) scale(22.2991)">
          <stop stop-color="#404040"/>
          <stop offset="1" stop-color="#E8E7E7"/>
        </radialGradient>
        <radialGradient id="paint35_radial_5_60" cx="0" cy="0" r="1" gradientUnits="userSpaceOnUse" gradientTransform="translate(25 96.5) rotate(47.7263) scale(22.2991)">
          <stop stop-color="#404040"/>
          <stop offset="1" stop-color="#E8E7E7"/>
        </radialGradient>
        <radialGradient id="paint36_radial_5_60" cx="0" cy="0" r="1" gradientUnits="userSpaceOnUse" gradientTransform="translate(25 96.5) rotate(47.7263) scale(22.2991)">
          <stop stop-color="#404040"/>
          <stop offset="1" stop-color="#E8E7E7"/>
        </radialGradient>
        <radialGradient id="paint37_radial_5_60" cx="0" cy="0" r="1" gradientUnits="userSpaceOnUse" gradientTransform="translate(30 99.75) rotate(47.7263) scale(11.1496)">
          <stop stop-color="#404040"/>
          <stop offset="1" stop-color="#E8E7E7"/>
        </radialGradient>
        <radialGradient id="paint38_radial_5_60" cx="0" cy="0" r="1" gradientUnits="userSpaceOnUse" gradientTransform="translate(30 99.75) rotate(47.7263) scale(11.1496)">
          <stop stop-color="#404040"/>
          <stop offset="1" stop-color="#E8E7E7"/>
        </radialGradient>
        <radialGradient id="paint39_radial_5_60" cx="0" cy="0" r="1" gradientUnits="userSpaceOnUse" gradientTransform="translate(30 99.75) rotate(47.7263) scale(11.1496)">
          <stop offset="0.463542" stop-color="#E8E7E7"/>
          <stop offset="1" stop-color="#878787"/>
        </radialGradient>
        <radialGradient id="paint40_radial_5_60" cx="0" cy="0" r="1" gradientUnits="userSpaceOnUse" gradientTransform="translate(76 93.5) rotate(47.7263) scale(22.2991)">
          <stop stop-color="#404040"/>
          <stop offset="1" stop-color="#E8E7E7"/>
        </radialGradient>
        <radialGradient id="paint41_radial_5_60" cx="0" cy="0" r="1" gradientUnits="userSpaceOnUse" gradientTransform="translate(76 93.5) rotate(47.7263) scale(22.2991)">
          <stop stop-color="#404040"/>
          <stop offset="1" stop-color="#E8E7E7"/>
        </radialGradient>
        <radialGradient id="paint42_radial_5_60" cx="0" cy="0" r="1" gradientUnits="userSpaceOnUse" gradientTransform="translate(76 93.5) rotate(47.7263) scale(22.2991)">
          <stop stop-color="#404040"/>
          <stop offset="1" stop-color="#E8E7E7"/>
        </radialGradient>
        <radialGradient id="paint43_radial_5_60" cx="0" cy="0" r="1" gradientUnits="userSpaceOnUse" gradientTransform="translate(81 96.75) rotate(47.7263) scale(11.1496)">
          <stop stop-color="#404040"/>
          <stop offset="1" stop-color="#E8E7E7"/>
        </radialGradient>
        <radialGradient id="paint44_radial_5_60" cx="0" cy="0" r="1" gradientUnits="userSpaceOnUse" gradientTransform="translate(81 96.75) rotate(47.7263) scale(11.1496)">
          <stop stop-color="#404040"/>
          <stop offset="1" stop-color="#E8E7E7"/>
        </radialGradient>
        <radialGradient id="paint45_radial_5_60" cx="0" cy="0" r="1" gradientUnits="userSpaceOnUse" gradientTransform="translate(81 96.75) rotate(47.7263) scale(11.1496)">
          <stop offset="0.463542" stop-color="#E8E7E7"/>
          <stop offset="1" stop-color="#878787"/>
        </radialGradient>
        <radialGradient id="paint46_radial_5_60" cx="0" cy="0" r="1" gradientUnits="userSpaceOnUse" gradientTransform="translate(127 91.5) rotate(47.7263) scale(22.2991)">
          <stop stop-color="#404040"/>
          <stop offset="1" stop-color="#E8E7E7"/>
        </radialGradient>
        <radialGradient id="paint47_radial_5_60" cx="0" cy="0" r="1" gradientUnits="userSpaceOnUse" gradientTransform="translate(127 91.5) rotate(47.7263) scale(22.2991)">
          <stop stop-color="#404040"/>
          <stop offset="1" stop-color="#E8E7E7"/>
        </radialGradient>
        <radialGradient id="paint48_radial_5_60" cx="0" cy="0" r="1" gradientUnits="userSpaceOnUse" gradientTransform="translate(127 91.5) rotate(47.7263) scale(22.2991)">
          <stop stop-color="#404040"/>
          <stop offset="1" stop-color="#E8E7E7"/>
        </radialGradient>
        <radialGradient id="paint49_radial_5_60" cx="0" cy="0" r="1" gradientUnits="userSpaceOnUse" gradientTransform="translate(132 94.75) rotate(47.7263) scale(11.1496)">
          <stop stop-color="#404040"/>
          <stop offset="1" stop-color="#E8E7E7"/>
        </radialGradient>
        <radialGradient id="paint50_radial_5_60" cx="0" cy="0" r="1" gradientUnits="userSpaceOnUse" gradientTransform="translate(132 94.75) rotate(47.7263) scale(11.1496)">
          <stop stop-color="#404040"/>
          <stop offset="1" stop-color="#E8E7E7"/>
        </radialGradient>
        <radialGradient id="paint51_radial_5_60" cx="0" cy="0" r="1" gradientUnits="userSpaceOnUse" gradientTransform="translate(132 94.75) rotate(47.7263) scale(11.1496)">
          <stop offset="0.463542" stop-color="#E8E7E7"/>
          <stop offset="1" stop-color="#878787"/>
        </radialGradient>
      </defs>
    </svg>